<svg width="35" height="34" viewBox="0 0 35 34" fill="none" xmlns="http://www.w3.org/2000/svg">
<path d="M3.42116 17.493C3.30309 17.1749 3.30309 16.8251 3.42116 16.507C4.57107 13.7188 6.52297 11.3348 9.02942 9.65727C11.5359 7.97974 14.484 7.08421 17.5 7.08421C20.516 7.08421 23.4641 7.97974 25.9706 9.65727C28.477 11.3348 30.4289 13.7188 31.5788 16.507C31.6969 16.8251 31.6969 17.1749 31.5788 17.493C30.4289 20.2812 28.477 22.6652 25.9706 24.3427C23.4641 26.0203 20.516 26.9158 17.5 26.9158C14.484 26.9158 11.5359 26.0203 9.02942 24.3427C6.52297 22.6652 4.57107 20.2812 3.42116 17.493Z" stroke="#1877F2" stroke-width="2" stroke-linecap="round" stroke-linejoin="round"/>
<path d="M17.5 21.25C19.8472 21.25 21.75 19.3472 21.75 17C21.75 14.6528 19.8472 12.75 17.5 12.75C15.1528 12.75 13.25 14.6528 13.25 17C13.25 19.3472 15.1528 21.25 17.5 21.25Z" stroke="#1877F2" stroke-width="2" stroke-linecap="round" stroke-linejoin="round"/>
</svg>
